#N canvas 0 23 712 870 10;
#X obj 128 331 *~;
#X obj 128 602 dac~ 1;
#X obj 376 331 *~;
#X obj 377 586 dac~ 2;
#X obj 182 216 line~;
#X obj 391 255 line~;
#X obj 391 132 loadbang;
#X msg 391 152 1;
#N canvas 976 539 450 300 x 0;
#X obj 37 37 inlet;
#X obj 37 62 * 100;
#X obj 37 101 moses 50;
#X obj 37 160 outlet;
#X obj 153 159 outlet;
#X obj 37 140 scale_abs 0 50 1 0;
#X obj 153 139 scale_abs 50 100 0 1;
#X connect 0 0 1 0;
#X connect 1 0 2 0;
#X connect 2 0 5 0;
#X connect 2 1 6 0;
#X connect 5 0 3 0;
#X connect 6 0 4 0;
#X restore 297 81 pd x;
#X obj 182 176 f;
#X obj 391 172 f;
#X obj 182 196 pack f 10;
#X obj 391 192 pack f 10;
#X obj 198 351 list split 1;
#X obj 396 351 list split 1;
#X obj 232 374 pot_sel;
#X obj 128 461 *~;
#X obj 128 537 *~;
#X obj 276 441 r slider;
#X obj 276 461 / 255;
#X obj 377 526 *~;
#X obj 440 374 pot_sel;
#X obj 376 405 *~;
#X floatatom 440 394 5 0 0 0 - - -;
#X floatatom 232 394 5 0 0 0 - - -;
#X obj 127 218 inlet~;
#X obj 297 60 inlet;
#X obj 198 331 route_input \$1;
#X connect 0 0 16 0;
#X connect 2 0 22 0;
#X connect 4 0 0 1;
#X connect 5 0 2 1;
#X connect 6 0 7 0;
#X connect 7 0 9 0;
#X connect 7 0 10 0;
#X connect 8 0 9 0;
#X connect 8 1 10 0;
#X connect 9 0 11 0;
#X connect 10 0 12 0;
#X connect 11 0 4 0;
#X connect 12 0 5 0;
#X connect 13 1 15 0;
#X connect 14 1 21 0;
#X connect 15 0 16 1;
#X connect 15 0 24 0;
#X connect 16 0 17 0;
#X connect 17 0 1 0;
#X connect 18 0 19 0;
#X connect 19 0 17 1;
#X connect 19 0 20 1;
#X connect 20 0 3 0;
#X connect 21 0 22 1;
#X connect 21 0 23 0;
#X connect 22 0 20 0;
#X connect 25 0 0 0;
#X connect 25 0 2 0;
#X connect 26 0 8 0;
#X connect 27 0 1 0;
#X connect 27 0 13 0;
#X connect 27 1 3 0;
#X connect 27 1 14 0;
