#N canvas 1034 163 442 644 10;
#X obj 61 276 *~;
#X obj 61 567 dac~ 1;
#X obj 209 270 *~;
#X obj 209 571 dac~ 2;
#X obj 140 186 line~;
#X obj 243 186 line~;
#X obj 61 386 *~;
#X obj 209 368 *~;
#X obj 76 316 / 1000;
#X obj 223 308 / 1000;
#X obj 223 328 pack f 10;
#X obj 223 348 line~;
#X obj 61 496 *~;
#X obj 121 365 r slider;
#X obj 121 385 / 255;
#X obj 76 338 pack f 10;
#X obj 76 358 line~;
#X obj 121 425 line~;
#X obj 209 500 *~;
#X obj 61 184 inlet~;
#X obj 140 23 inlet;
#X obj 76 296 r \$1;
#X obj 223 288 r \$2;
#X obj 273 362 r \$3;
#X msg 273 471 set \$1;
#X floatatom 273 452 5 0 0 0 - - -;
#X msg 329 471 set \$1;
#X floatatom 329 452 5 0 0 0 - - -;
#X obj 329 362 r \$4;
#X obj 273 382 moses 10;
#X obj 329 382 moses 10;
#X obj 121 405 pack f 25;
#X obj 243 49 loadbang;
#X msg 243 69 1;
#X obj 273 412 % 9;
#X obj 329 412 % 9;
#N canvas 976 539 450 300 x 0;
#X obj 37 37 inlet;
#X obj 37 62 * 100;
#X obj 37 101 moses 50;
#X obj 37 160 outlet;
#X obj 153 159 outlet;
#X obj 37 140 scale_abs 0 50 1 0;
#X obj 153 139 scale_abs 50 100 0 1;
#X connect 0 0 1 0;
#X connect 1 0 2 0;
#X connect 2 0 5 0;
#X connect 2 1 6 0;
#X connect 5 0 3 0;
#X connect 6 0 4 0;
#X restore 140 43 pd x;
#X obj 140 107 f;
#X obj 243 106 f;
#X obj 140 147 pack f 10;
#X obj 243 146 pack f 10;
#X obj 61 516 *~ 1;
#X obj 209 520 *~ 1;
#X connect 0 0 6 0;
#X connect 2 0 7 0;
#X connect 4 0 0 1;
#X connect 5 0 2 1;
#X connect 6 0 12 0;
#X connect 7 0 18 0;
#X connect 8 0 15 0;
#X connect 9 0 10 0;
#X connect 10 0 11 0;
#X connect 11 0 7 1;
#X connect 12 0 41 0;
#X connect 13 0 14 0;
#X connect 14 0 31 0;
#X connect 15 0 16 0;
#X connect 16 0 6 1;
#X connect 17 0 12 1;
#X connect 17 0 18 1;
#X connect 18 0 42 0;
#X connect 19 0 0 0;
#X connect 19 0 2 0;
#X connect 20 0 36 0;
#X connect 21 0 8 0;
#X connect 22 0 9 0;
#X connect 23 0 29 0;
#X connect 25 0 24 0;
#X connect 27 0 26 0;
#X connect 28 0 30 0;
#X connect 29 0 34 0;
#X connect 30 0 35 0;
#X connect 31 0 17 0;
#X connect 32 0 33 0;
#X connect 33 0 37 0;
#X connect 33 0 38 0;
#X connect 34 0 25 0;
#X connect 35 0 27 0;
#X connect 36 0 37 0;
#X connect 36 1 38 0;
#X connect 37 0 39 0;
#X connect 38 0 40 0;
#X connect 39 0 4 0;
#X connect 40 0 5 0;
#X connect 41 0 1 0;
#X connect 42 0 3 0;
