#N canvas 804 23 423 888 10;
#X obj 85 235 *~;
#X obj 280 246 *~;
#X obj 169 177 line;
#X obj 170 116 r slider;
#X obj 169 136 / 255;
#X obj 85 207 *~;
#X obj 280 203 *~;
#X obj 100 322 / 1000;
#X obj 85 382 *~;
#X obj 295 321 / 1000;
#X obj 280 379 *~;
#X obj 100 340 pack f 100;
#X obj 100 362 line~;
#X obj 295 341 pack f 100;
#X obj 295 361 line~;
#X obj 85 461 dac~ 1;
#X obj 280 461 dac~ 2;
#X msg 170 412 set \$1;
#X floatatom 170 393 5 0 0 0 - - -;
#X msg 226 412 set \$1;
#X floatatom 226 393 5 0 0 0 - - -;
#X obj 170 323 moses 10;
#X obj 226 323 moses 10;
#X obj 170 353 % 9;
#X obj 226 353 % 9;
#X obj 169 157 pack f 250;
#X obj 100 182 fid_ \$1;
#X obj 295 183 fid_ \$2;
#X obj 100 302 r \$3;
#X obj 295 301 r \$4;
#X obj 171 302 r \$5;
#X obj 226 303 r \$6;
#X obj 85 20 adc~ \$1;
#X obj 280 22 adc~ \$2;
#X obj 85 90 *~;
#X obj 280 92 *~;
#X obj 100 48 r \$7;
#X obj 100 68 / 1000;
#X obj 294 72 / 1000;
#X obj 294 52 r \$8;
#X connect 0 0 8 0;
#X connect 1 0 10 0;
#X connect 2 0 0 1;
#X connect 2 0 1 1;
#X connect 3 0 4 0;
#X connect 4 0 25 0;
#X connect 5 0 0 0;
#X connect 6 0 1 0;
#X connect 7 0 11 0;
#X connect 8 0 15 0;
#X connect 9 0 13 0;
#X connect 10 0 16 0;
#X connect 11 0 12 0;
#X connect 12 0 8 1;
#X connect 13 0 14 0;
#X connect 14 0 10 1;
#X connect 18 0 17 0;
#X connect 20 0 19 0;
#X connect 21 0 23 0;
#X connect 22 0 24 0;
#X connect 23 0 18 0;
#X connect 24 0 20 0;
#X connect 25 0 2 0;
#X connect 26 0 5 1;
#X connect 27 0 6 1;
#X connect 28 0 7 0;
#X connect 29 0 9 0;
#X connect 30 0 21 0;
#X connect 31 0 22 0;
#X connect 32 0 34 0;
#X connect 33 0 35 0;
#X connect 34 0 5 0;
#X connect 34 0 26 0;
#X connect 35 0 6 0;
#X connect 35 0 27 0;
#X connect 36 0 37 0;
#X connect 37 0 34 1;
#X connect 38 0 35 1;
#X connect 39 0 38 0;
