#N canvas 277 443 450 300 10;
#X obj 39 253 outlet;
#X obj 102 253 outlet;
#X obj 158 253 outlet;
#X obj 221 253 outlet;
#N canvas 403 185 510 550 loc 0;
#X obj 76 387 outlet;
#X floatatom 76 363 5 0 0 0 - - -;
#X obj 22 103 change;
#X obj 22 125 t b f;
#X obj 22 146 f;
#X obj 22 167 + 1;
#X obj 22 209 sel 0;
#X obj 22 230 t b;
#X obj 22 251 del 2;
#X obj 22 188 % 4;
#X msg 49 147 append \$1;
#X obj 76 265 list store;
#X obj 76 286 unpack f f f f;
#X floatatom 103 407 5 0 0 0 - - -;
#X floatatom 130 443 5 0 0 0 - - -;
#X floatatom 157 483 5 0 0 0 - - -;
#X obj 103 426 outlet;
#X obj 130 462 outlet;
#X obj 157 502 outlet;
#N canvas 0 22 450 300 pos 0;
#X obj 38 84 parse_sprintf 114;
#X obj 38 104 spigot;
#X obj 158 104 spigot;
#X obj 81 41 loadbang;
#X obj 81 61 \$1;
#X obj 81 104 == 1;
#X obj 204 104 == 2;
#X obj 191 41 loadbang;
#X obj 191 61 \$1;
#X obj 158 84 parse_sprintf 116;
#X floatatom 38 124 5 0 0 0 - - -;
#X floatatom 158 124 5 0 0 0 - - -;
#X obj 150 63 bng 15 250 50 0 empty empty empty 17 7 0 10 -262144 -1
-1;
#X obj 38 183 outlet;
#X connect 0 0 1 0;
#X connect 1 0 10 0;
#X connect 2 0 11 0;
#X connect 3 0 4 0;
#X connect 4 0 5 0;
#X connect 5 0 1 1;
#X connect 6 0 2 1;
#X connect 7 0 8 0;
#X connect 8 0 6 0;
#X connect 9 0 2 0;
#X connect 10 0 13 0;
#X connect 11 0 13 0;
#X connect 12 0 4 0;
#X connect 12 0 8 0;
#X restore 22 74 pd pos;
#N canvas 0 22 285 201 #id 0;
#X obj 32 64 parse_sprintf 91;
#X obj 142 64 parse_sprintf 93;
#X obj 32 84 spigot;
#X obj 142 84 spigot;
#X obj 74 84 == 1;
#X obj 185 85 == 2;
#X obj 74 26 loadbang;
#X obj 74 46 \$1;
#X obj 185 26 loadbang;
#X obj 185 46 \$1;
#X floatatom 32 104 5 0 0 0 - - -;
#X floatatom 142 104 5 0 0 0 - - -;
#X obj 32 153 outlet;
#X connect 0 0 2 0;
#X connect 1 0 3 0;
#X connect 2 0 10 0;
#X connect 3 0 11 0;
#X connect 4 0 2 1;
#X connect 5 0 3 1;
#X connect 6 0 7 0;
#X connect 7 0 4 0;
#X connect 8 0 9 0;
#X connect 9 0 5 0;
#X connect 10 0 12 0;
#X connect 11 0 12 0;
#X restore 71 174 pd #id;
#X floatatom 71 194 5 0 0 0 - - -;
#X obj 76 307 / 100;
#X obj 103 327 / 100;
#X obj 130 347 / 100;
#X obj 157 367 / 100;
#X connect 1 0 0 0;
#X connect 2 0 3 0;
#X connect 3 0 4 0;
#X connect 3 1 10 0;
#X connect 4 0 5 0;
#X connect 5 0 4 1;
#X connect 5 0 9 0;
#X connect 6 0 7 0;
#X connect 7 0 8 0;
#X connect 7 0 11 0;
#X connect 8 0 11 1;
#X connect 9 0 6 0;
#X connect 10 0 11 0;
#X connect 11 0 12 0;
#X connect 12 0 22 0;
#X connect 12 1 23 0;
#X connect 12 2 24 0;
#X connect 12 3 25 0;
#X connect 13 0 16 0;
#X connect 14 0 17 0;
#X connect 15 0 18 0;
#X connect 19 0 2 0;
#X connect 20 0 9 1;
#X connect 20 0 21 0;
#X connect 22 0 1 0;
#X connect 23 0 13 0;
#X connect 24 0 14 0;
#X connect 25 0 15 0;
#X restore 39 13 pd loc;
#N canvas 851 182 450 501 size 1;
#X obj 190 251 list store;
#X msg 190 192 append \$1;
#X obj 63 84 t b f;
#X obj 63 105 f;
#X obj 63 126 + 1;
#X obj 63 168 sel 0;
#X obj 63 189 t b;
#X obj 63 235 del 2;
#X obj 190 272 unpack f f f f;
#X obj 63 147 % 4;
#X floatatom 190 292 5 0 0 0 - - -;
#X floatatom 217 335 5 0 0 0 - - -;
#X floatatom 244 380 5 0 0 0 - - -;
#X floatatom 271 421 5 0 0 0 - - -;
#X obj 190 311 outlet;
#X obj 217 354 outlet;
#X obj 244 399 outlet;
#X obj 271 440 outlet;
#N canvas 0 22 450 300 pos 0;
#X obj 38 104 spigot;
#X obj 158 104 spigot;
#X obj 81 41 loadbang;
#X obj 81 61 \$1;
#X obj 81 104 == 1;
#X obj 204 104 == 2;
#X obj 191 41 loadbang;
#X obj 191 61 \$1;
#X floatatom 38 124 5 0 0 0 - - -;
#X floatatom 158 124 5 0 0 0 - - -;
#X obj 150 63 bng 15 250 50 0 empty empty empty 17 7 0 10 -262144 -1
-1;
#X obj 38 183 outlet;
#X obj 38 84 parse_sprintf 123;
#X obj 158 84 parse_sprintf 125;
#X connect 0 0 8 0;
#X connect 1 0 9 0;
#X connect 2 0 3 0;
#X connect 3 0 4 0;
#X connect 4 0 0 1;
#X connect 5 0 1 1;
#X connect 6 0 7 0;
#X connect 7 0 5 0;
#X connect 8 0 11 0;
#X connect 9 0 11 0;
#X connect 10 0 3 0;
#X connect 10 0 7 0;
#X connect 12 0 0 0;
#X connect 13 0 1 0;
#X restore 63 40 pd pos;
#N canvas 0 22 285 201 #id 0;
#X obj 32 84 spigot;
#X obj 142 84 spigot;
#X obj 74 84 == 1;
#X obj 185 85 == 2;
#X obj 74 26 loadbang;
#X obj 74 46 \$1;
#X obj 185 26 loadbang;
#X obj 185 46 \$1;
#X floatatom 32 104 5 0 0 0 - - -;
#X floatatom 142 104 5 0 0 0 - - -;
#X obj 32 153 outlet;
#X obj 32 64 parse_sprintf 91;
#X obj 142 64 parse_sprintf 92;
#X connect 0 0 8 0;
#X connect 1 0 9 0;
#X connect 2 0 0 1;
#X connect 3 0 1 1;
#X connect 4 0 5 0;
#X connect 5 0 2 0;
#X connect 6 0 7 0;
#X connect 7 0 3 0;
#X connect 8 0 10 0;
#X connect 9 0 10 0;
#X connect 11 0 0 0;
#X connect 12 0 1 0;
#X restore 87 127 pd #id;
#X obj 63 62 * 2;
#X connect 0 0 8 0;
#X connect 1 0 0 0;
#X connect 2 0 3 0;
#X connect 2 1 1 0;
#X connect 3 0 4 0;
#X connect 4 0 3 1;
#X connect 4 0 9 0;
#X connect 5 0 6 0;
#X connect 6 0 0 0;
#X connect 6 0 7 0;
#X connect 7 0 0 1;
#X connect 8 0 10 0;
#X connect 8 1 11 0;
#X connect 8 2 12 0;
#X connect 8 3 13 0;
#X connect 9 0 5 0;
#X connect 10 0 14 0;
#X connect 11 0 15 0;
#X connect 12 0 16 0;
#X connect 13 0 17 0;
#X connect 18 0 20 0;
#X connect 19 0 9 1;
#X connect 20 0 2 0;
#X restore 83 13 pd size;
#X floatatom 39 162 5 0 0 0 - - -;
#X floatatom 102 165 5 0 0 0 - - -;
#X floatatom 158 165 5 0 0 0 - - -;
#X floatatom 221 165 5 0 0 0 - - -;
#X obj 39 69 pack f f;
#X obj 39 89 line;
#X obj 102 69 pack f f;
#X obj 102 89 line;
#X obj 158 69 pack f f;
#X obj 158 89 line;
#X obj 221 69 pack f f;
#X obj 221 89 line;
#X connect 4 0 10 0;
#X connect 4 1 12 0;
#X connect 4 2 14 0;
#X connect 4 3 16 0;
#X connect 5 0 10 1;
#X connect 5 1 12 1;
#X connect 5 2 14 1;
#X connect 5 3 16 1;
#X connect 6 0 0 0;
#X connect 7 0 1 0;
#X connect 8 0 2 0;
#X connect 9 0 3 0;
#X connect 10 0 11 0;
#X connect 11 0 6 0;
#X connect 12 0 13 0;
#X connect 13 0 7 0;
#X connect 14 0 15 0;
#X connect 15 0 8 0;
#X connect 16 0 17 0;
#X connect 17 0 9 0;
