#N canvas 1201 23 479 300 10;
#X obj 20 19 parse_sprintf 97;
#X obj 124 19 parse_sprintf 101;
#X obj 234 19 parse_sprintf 105;
#X obj 344 19 parse_sprintf 111;
#X floatatom 22 138 5 0 0 0 - - -;
#X obj 22 118 parse_sprintf 117;
#X floatatom 135 138 5 0 0 0 - - -;
#X obj 135 118 parse_sprintf 119;
#X obj 20 58 s input1-out;
#X obj 20 39 + 1;
#X obj 124 39 + 1;
#X obj 124 58 s input2-out;
#X obj 234 39 + 1;
#X obj 344 39 + 1;
#X obj 234 58 s input3-out;
#X obj 344 58 s input4-out;
#X connect 0 0 9 0;
#X connect 1 0 10 0;
#X connect 2 0 12 0;
#X connect 3 0 13 0;
#X connect 5 0 4 0;
#X connect 7 0 6 0;
#X connect 9 0 8 0;
#X connect 10 0 11 0;
#X connect 12 0 14 0;
#X connect 13 0 15 0;
