#N canvas 860 482 588 465 10;
#X obj 135 190 unpack;
#X obj 135 90 route 1 2 3 4;
#X obj 218 190 unpack;
#X obj 302 190 unpack;
#X obj 24 56 fiddle~ 1024 1 20 3;
#X obj 51 87 bng 15 250 50 0 empty empty empty 17 7 0 10 -262144 -1
-1;
#X text 156 80 amp;
#X text 56 75 raw;
#X text 68 111 peak;
#X obj 135 210 osc~;
#X obj 218 210 osc~;
#X obj 135 230 *~;
#X obj 135 250 *~;
#X obj 413 69 loadbang;
#X msg 413 108 \; \$1 resize 131;
#X obj 413 50 table \$1-fd;
#X obj 413 89 symbol \$1-fd;
#X obj 135 405 tabwrite~ \$1-fd;
#X obj 413 234 *~ 131;
#X obj 413 252 tabosc4~ \$1-fd;
#X obj 413 214 phasor~ 0.0001;
#X obj 416 175 hsl 128 15 0 1 0 0 empty empty empty -2 -8 0 10 -262144
-1 -1 4191 1;
#X obj 413 194 * 0.0001;
#X obj 413 137 random 1000;
#X obj 413 157 / 1000;
#X obj 413 390 outlet~;
#X obj 24 24 inlet~;
#X obj 302 210 osc~;
#X obj 232 42 sq_ --------;
#X obj 332 23 br_ 1 ------------;
#X obj 135 140 *;
#X obj 302 167 *;
#X obj 218 164 /;
#X connect 0 0 9 0;
#X connect 1 0 30 0;
#X connect 1 1 32 0;
#X connect 1 2 31 0;
#X connect 2 0 10 0;
#X connect 3 0 27 0;
#X connect 4 1 5 0;
#X connect 4 4 1 0;
#X connect 5 0 17 0;
#X connect 5 0 30 0;
#X connect 5 0 31 0;
#X connect 5 0 32 0;
#X connect 9 0 11 0;
#X connect 10 0 11 1;
#X connect 11 0 12 0;
#X connect 12 0 17 0;
#X connect 13 0 16 0;
#X connect 13 0 23 0;
#X connect 16 0 14 0;
#X connect 18 0 19 0;
#X connect 19 0 25 0;
#X connect 20 0 18 0;
#X connect 21 0 22 0;
#X connect 22 0 20 0;
#X connect 23 0 24 0;
#X connect 24 0 21 0;
#X connect 26 0 4 0;
#X connect 27 0 12 1;
#X connect 28 0 30 1;
#X connect 28 1 21 0;
#X connect 28 1 32 1;
#X connect 28 2 21 0;
#X connect 28 2 31 1;
#X connect 28 3 30 1;
#X connect 29 0 31 1;
#X connect 29 1 21 0;
#X connect 29 2 21 0;
#X connect 29 2 32 1;
#X connect 29 3 32 1;
#X connect 30 0 0 0;
#X connect 31 0 3 0;
#X connect 32 0 2 0;
