#N canvas 0 23 450 300 10;
#X obj 7 8 r file_index;
#X obj 7 48 sel 1;
#X msg 7 78 1;
#X obj 34 78 del 200;
#X msg 34 98 0;
#X obj 7 140 outlet;
#X obj 7 28 == \$1;
#X connect 0 0 6 0;
#X connect 1 0 2 0;
#X connect 1 1 3 0;
#X connect 2 0 5 0;
#X connect 3 0 4 0;
#X connect 4 0 5 0;
#X connect 6 0 1 0;
