#N canvas 1072 282 165 223 10;
#X obj 42 23 inlet;
#X obj 42 42 f;
#X obj 42 62 + 1;
#X floatatom 42 102 5 0 0 0 - - -;
#X obj 42 121 + 1;
#X floatatom 42 141 5 0 0 0 - - -;
#X obj 42 82 % \$1;
#X obj 42 160 s \$2-button;
#X obj 84 79 loadbang;
#X obj 84 99 random 7;
#X obj 84 119 + 1;
#X connect 0 0 1 0;
#X connect 1 0 2 0;
#X connect 2 0 1 1;
#X connect 2 0 6 0;
#X connect 3 0 4 0;
#X connect 4 0 5 0;
#X connect 5 0 7 0;
#X connect 6 0 3 0;
#X connect 8 0 9 0;
#X connect 9 0 10 0;
#X connect 10 0 5 0;
