#N canvas 9 23 942 864 12;
#X obj 560 57 switch~;
#X obj 560 7 r enc_file;
#X obj 560 32 == 0;
#X obj 34 186 adc~ 1;
#X obj 34 269 *~;
#X obj 52 220 r Pot_9;
#X obj 52 243 / 999;
#X obj 111 700 dac~ 1;
#X obj 111 568 *~;
#X obj 110 269 *~;
#X obj 128 243 / 999;
#X obj 110 186 adc~ 2;
#X obj 128 220 r Pot_10;
#X obj 210 279 *~;
#X obj 228 253 / 999;
#X obj 290 279 *~;
#X obj 308 253 / 999;
#X obj 210 196 adc~ 3;
#X obj 290 196 adc~ 4;
#X obj 228 230 r Pot_11;
#X obj 308 230 r Pot_12;
#X obj 194 547 *~;
#X obj 194 639 dac~ 2;
#X obj 129 522 r Pot_1;
#X obj 129 545 / 999;
#X obj 212 512 / 999;
#X obj 212 489 r Pot_2;
#X obj 111 638 *~;
#X obj 129 592 r slider;
#X obj 129 615 / 255;
#X obj 194 613 *~;
#X obj 212 567 r slider;
#X obj 212 590 / 255;
#X obj 289 505 *~;
#X obj 385 459 *~;
#X obj 307 482 / 999;
#X obj 403 424 / 999;
#X obj 289 575 *~;
#X obj 307 529 r slider;
#X obj 307 552 / 255;
#X obj 385 525 *~;
#X obj 403 479 r slider;
#X obj 403 502 / 255;
#X obj 307 459 r Pot_3;
#X obj 403 401 r Pot_4;
#X obj 111 345 *~ 1;
#X obj 289 637 dac~ 3;
#X obj 385 551 dac~ 4;
#X obj 434 190 adc~ 1;
#X obj 434 273 *~;
#X obj 452 224 r Pot_9;
#X obj 452 247 / 999;
#X obj 511 572 *~;
#X obj 510 273 *~;
#X obj 528 247 / 999;
#X obj 510 190 adc~ 2;
#X obj 528 224 r Pot_10;
#X obj 610 283 *~;
#X obj 628 257 / 999;
#X obj 690 283 *~;
#X obj 708 257 / 999;
#X obj 610 200 adc~ 3;
#X obj 690 200 adc~ 4;
#X obj 628 234 r Pot_11;
#X obj 708 234 r Pot_12;
#X obj 594 551 *~;
#X obj 529 549 / 999;
#X obj 612 516 / 999;
#X obj 511 642 *~;
#X obj 529 596 r slider;
#X obj 529 619 / 255;
#X obj 594 617 *~;
#X obj 612 571 r slider;
#X obj 612 594 / 255;
#X obj 689 509 *~;
#X obj 785 463 *~;
#X obj 707 486 / 999;
#X obj 803 428 / 999;
#X obj 689 579 *~;
#X obj 707 533 r slider;
#X obj 707 556 / 255;
#X obj 785 529 *~;
#X obj 803 483 r slider;
#X obj 803 506 / 255;
#X obj 511 349 *~ 1;
#X obj 511 704 dac~ 5;
#X obj 594 643 dac~ 6;
#X obj 689 641 dac~ 7;
#X obj 785 555 dac~ 8;
#X obj 529 526 r Pot_5;
#X obj 612 493 r Pot_6;
#X obj 707 463 r Pot_7;
#X obj 803 405 r Pot_8;
#X connect 1 0 2 0;
#X connect 2 0 0 0;
#X connect 3 0 4 0;
#X connect 4 0 45 0;
#X connect 5 0 6 0;
#X connect 6 0 4 1;
#X connect 8 0 27 0;
#X connect 9 0 45 0;
#X connect 10 0 9 1;
#X connect 11 0 9 0;
#X connect 12 0 10 0;
#X connect 13 0 45 0;
#X connect 14 0 13 1;
#X connect 15 0 45 0;
#X connect 16 0 15 1;
#X connect 17 0 13 0;
#X connect 18 0 15 0;
#X connect 19 0 14 0;
#X connect 20 0 16 0;
#X connect 21 0 30 0;
#X connect 23 0 24 0;
#X connect 24 0 8 1;
#X connect 25 0 21 1;
#X connect 26 0 25 0;
#X connect 27 0 7 0;
#X connect 28 0 29 0;
#X connect 29 0 27 1;
#X connect 30 0 22 0;
#X connect 31 0 32 0;
#X connect 32 0 30 1;
#X connect 33 0 37 0;
#X connect 34 0 40 0;
#X connect 35 0 33 1;
#X connect 36 0 34 1;
#X connect 37 0 46 0;
#X connect 38 0 39 0;
#X connect 39 0 37 1;
#X connect 40 0 47 0;
#X connect 41 0 42 0;
#X connect 42 0 40 1;
#X connect 43 0 35 0;
#X connect 44 0 36 0;
#X connect 45 0 8 0;
#X connect 45 0 21 0;
#X connect 45 0 33 0;
#X connect 45 0 34 0;
#X connect 48 0 49 0;
#X connect 49 0 84 0;
#X connect 50 0 51 0;
#X connect 51 0 49 1;
#X connect 52 0 68 0;
#X connect 53 0 84 0;
#X connect 54 0 53 1;
#X connect 55 0 53 0;
#X connect 56 0 54 0;
#X connect 57 0 84 0;
#X connect 58 0 57 1;
#X connect 59 0 84 0;
#X connect 60 0 59 1;
#X connect 61 0 57 0;
#X connect 62 0 59 0;
#X connect 63 0 58 0;
#X connect 64 0 60 0;
#X connect 65 0 71 0;
#X connect 66 0 52 1;
#X connect 67 0 65 1;
#X connect 68 0 85 0;
#X connect 69 0 70 0;
#X connect 70 0 68 1;
#X connect 71 0 86 0;
#X connect 72 0 73 0;
#X connect 73 0 71 1;
#X connect 74 0 78 0;
#X connect 75 0 81 0;
#X connect 76 0 74 1;
#X connect 77 0 75 1;
#X connect 78 0 87 0;
#X connect 79 0 80 0;
#X connect 80 0 78 1;
#X connect 81 0 88 0;
#X connect 82 0 83 0;
#X connect 83 0 81 1;
#X connect 84 0 52 0;
#X connect 84 0 65 0;
#X connect 84 0 74 0;
#X connect 84 0 75 0;
#X connect 89 0 66 0;
#X connect 90 0 67 0;
#X connect 91 0 76 0;
#X connect 92 0 77 0;
