#N canvas 1381 409 407 435 10;
#X msg 62 192 50;
#X obj 35 121 moses 50;
#X obj 35 159 t f b;
#X obj 212 174 t f b;
#X msg 239 196 50;
#X obj 308 35 file_Sel \$1;
#X obj 275 56 spigot;
#X floatatom 275 76 5 0 0 0 - - -;
#X obj 275 13 r modeXY;
#X obj 242 120 spigot;
#X obj 35 13 inlet;
#X obj 212 285 outlet;
#X obj 35 286 outlet;
#X obj 275 95 == \$2;
#X text 312 96 0;
#X text 108 254 0 50 1 0;
#X text 291 251 50 100 0 1;
#X obj 35 226 scale_abs 0 50 \$3 \$4;
#X obj 212 225 scale_abs 50 100 \$4 \$3;
#X obj 275 33 % 3;
#X text 210 35 max modes;
#X connect 0 0 18 0;
#X connect 1 0 2 0;
#X connect 1 1 3 0;
#X connect 2 0 17 0;
#X connect 2 1 0 0;
#X connect 3 0 18 0;
#X connect 3 1 4 0;
#X connect 4 0 17 0;
#X connect 5 0 6 1;
#X connect 6 0 7 0;
#X connect 7 0 13 0;
#X connect 8 0 19 0;
#X connect 10 0 1 0;
#X connect 13 0 9 1;
#X connect 17 0 12 0;
#X connect 18 0 11 0;
#X connect 19 0 6 0;
