#N canvas 90 0 947 546 10;
#X obj 105 406 *~;
#X obj 347 402 *~;
#X obj 105 427 outlet~;
#X obj 347 423 outlet~;
#X obj 362 220 clip 0 1;
#X obj 105 216 clip 0 1;
#X obj 105 320 line~;
#X obj 362 287 line~;
#X obj 105 300 pack f 100;
#X obj 362 265 pack f 100;
#X obj 217 273 inlet~;
#X obj 420 201 loadbang;
#X msg 420 221 1;
#X obj 40 217 loadbang;
#X msg 40 237 1;
#X text 225 306 input potentiometer;
#X obj 362 171 t f;
#X floatatom 330 251 5 0 0 0 - - -;
#X floatatom 375 191 5 0 0 0 - - -;
#X obj 217 330 *~ 1;
#X obj 105 78 spigot;
#X obj 134 96 spigot;
#X obj 201 28 loadbang;
#X obj 201 47 \$1;
#X obj 105 161 t f b;
#X obj 201 65 == 1;
#X obj 235 78 spigot;
#X obj 267 97 spigot;
#X obj 331 28 loadbang;
#X obj 331 47 \$1;
#X obj 331 65 == 2;
#X obj 365 88 spigot;
#X obj 394 106 spigot;
#X obj 461 38 loadbang;
#X obj 461 57 \$1;
#X obj 495 88 spigot;
#X obj 527 107 spigot;
#X obj 591 38 loadbang;
#X obj 591 57 \$1;
#X obj 461 75 == 3;
#X obj 105 8 trill_square \$2;
#X obj 469 13 trill_bar \$3;
#X obj 591 75 == 4;
#X floatatom 118 188 5 0 0 0 - - -;
#X connect 0 0 2 0;
#X connect 1 0 3 0;
#X connect 4 0 9 0;
#X connect 4 0 17 0;
#X connect 5 0 8 0;
#X connect 6 0 0 0;
#X connect 7 0 1 1;
#X connect 8 0 6 0;
#X connect 9 0 7 0;
#X connect 10 0 19 0;
#X connect 11 0 12 0;
#X connect 12 0 9 0;
#X connect 13 0 14 0;
#X connect 14 0 8 0;
#X connect 16 0 4 0;
#X connect 16 0 18 0;
#X connect 19 0 0 1;
#X connect 19 0 1 0;
#X connect 20 0 24 0;
#X connect 21 0 16 0;
#X connect 21 0 24 0;
#X connect 22 0 23 0;
#X connect 23 0 25 0;
#X connect 24 0 5 0;
#X connect 24 0 43 0;
#X connect 25 0 20 1;
#X connect 25 0 21 1;
#X connect 26 0 24 0;
#X connect 27 0 16 0;
#X connect 28 0 29 0;
#X connect 29 0 30 0;
#X connect 30 0 26 1;
#X connect 30 0 27 1;
#X connect 31 0 24 0;
#X connect 32 0 16 0;
#X connect 33 0 34 0;
#X connect 34 0 39 0;
#X connect 35 0 24 0;
#X connect 36 0 16 0;
#X connect 37 0 38 0;
#X connect 38 0 42 0;
#X connect 39 0 31 1;
#X connect 39 0 32 1;
#X connect 40 0 20 0;
#X connect 40 1 21 0;
#X connect 40 2 26 0;
#X connect 40 3 27 0;
#X connect 41 0 31 0;
#X connect 41 1 32 0;
#X connect 41 2 35 0;
#X connect 41 3 36 0;
#X connect 42 0 35 1;
#X connect 42 0 36 1;
