#N canvas 0 23 450 300 10;
#N canvas 523 322 688 311 byte 0;
#X obj 19 42 route 45;
#X obj 19 74 unpack f f f;
#X obj 19 112 expr -(($f1 - 48) * 100 + ($f2 - 48) * 10 + ($f3 - 48))
;
#X obj 359 147 expr ($f1 - 48) * 100 + ($f2 - 48) * 10 + ($f3 - 48)
;
#X obj 359 69 unpack f f f;
#X obj 19 15 inlet;
#X obj 19 230 outlet;
#X connect 0 0 1 0;
#X connect 0 1 4 0;
#X connect 1 0 2 0;
#X connect 1 1 2 1;
#X connect 1 2 2 2;
#X connect 2 0 6 0;
#X connect 3 0 6 0;
#X connect 4 0 3 0;
#X connect 4 1 3 1;
#X connect 4 2 3 2;
#X connect 5 0 0 0;
#X restore 93 100 pd byte;
#X floatatom 93 121 5 0 0 0 - - -;
#X obj 93 62 route \$1;
#X obj 93 141 outlet;
#X obj 93 42 r dataRAW;
#X connect 0 0 1 0;
#X connect 1 0 3 0;
#X connect 2 0 0 0;
#X connect 4 0 2 0;
