#N canvas 0 23 488 664 10;
#X obj 23 56 r Pot_1;
#X obj 72 17 inlet;
#X obj 72 57 == 1;
#X obj 23 86 spigot;
#X floatatom 23 106 5 0 0 0 - - -;
#X obj 72 37 t f f f f f f f f;
#X obj 37 156 spigot;
#X floatatom 37 176 5 0 0 0 - - -;
#X obj 86 127 == 2;
#X obj 37 126 r Pot_2;
#X obj 51 224 spigot;
#X floatatom 51 244 5 0 0 0 - - -;
#X obj 65 294 spigot;
#X floatatom 65 314 5 0 0 0 - - -;
#X obj 100 195 == 3;
#X obj 51 194 r Pot_3;
#X obj 114 265 == 4;
#X obj 65 264 r Pot_4;
#X obj 79 364 spigot;
#X floatatom 79 384 5 0 0 0 - - -;
#X obj 93 434 spigot;
#X floatatom 93 454 5 0 0 0 - - -;
#X obj 107 502 spigot;
#X floatatom 107 522 5 0 0 0 - - -;
#X obj 122 572 spigot;
#X floatatom 122 592 5 0 0 0 - - -;
#X obj 79 334 r Pot_5;
#X obj 128 335 == 5;
#X obj 93 404 r Pot_6;
#X obj 142 405 == 6;
#X obj 107 472 r Pot_7;
#X obj 156 473 == 7;
#X obj 122 542 r Pot_8;
#X obj 171 543 == 8;
#X obj 23 622 / 999;
#X obj 23 642 outlet;
#X connect 0 0 3 0;
#X connect 1 0 5 0;
#X connect 2 0 3 1;
#X connect 3 0 4 0;
#X connect 4 0 34 0;
#X connect 5 0 2 0;
#X connect 5 1 8 0;
#X connect 5 2 14 0;
#X connect 5 3 16 0;
#X connect 5 4 27 0;
#X connect 5 5 29 0;
#X connect 5 6 31 0;
#X connect 5 7 33 0;
#X connect 6 0 7 0;
#X connect 7 0 34 0;
#X connect 8 0 6 1;
#X connect 9 0 6 0;
#X connect 10 0 11 0;
#X connect 11 0 34 0;
#X connect 12 0 13 0;
#X connect 13 0 34 0;
#X connect 14 0 10 1;
#X connect 15 0 10 0;
#X connect 16 0 12 1;
#X connect 17 0 12 0;
#X connect 18 0 19 0;
#X connect 19 0 34 0;
#X connect 20 0 21 0;
#X connect 21 0 34 0;
#X connect 22 0 23 0;
#X connect 23 0 34 0;
#X connect 24 0 25 0;
#X connect 25 0 34 0;
#X connect 26 0 18 0;
#X connect 27 0 18 1;
#X connect 28 0 20 0;
#X connect 29 0 20 1;
#X connect 30 0 22 0;
#X connect 31 0 22 1;
#X connect 32 0 24 0;
#X connect 33 0 24 1;
#X connect 34 0 35 0;
