#N canvas 422 132 450 300 12;
#X obj 124 130 pack f 100;
#X obj 124 160 line~;
#X obj 124 244 outlet~;
#X obj 124 59 r \$1;
#X obj 269 133 pack f 100;
#X obj 269 112 / 100;
#X obj 124 204 *~;
#X obj 269 163 line~;
#X obj 269 82 r slider;
#X obj 124 99 / 1000;
#X connect 0 0 1 0;
#X connect 1 0 6 0;
#X connect 3 0 9 0;
#X connect 4 0 7 0;
#X connect 5 0 4 0;
#X connect 6 0 2 0;
#X connect 7 0 6 1;
#X connect 8 0 5 0;
#X connect 9 0 0 0;
