#N canvas 666 23 594 716 10;
#X obj 510 52 switch~;
#X obj 509 11 r enc_file;
#X obj 542 33 tgl 15 0 empty empty empty 17 7 0 10 -262144 -1 -1 1
1;
#X obj 510 32 == 2;
#X obj 20 652 dac~ 1 2 3 4 5 6 7 8;
#X obj 131 171 loadbang;
#X msg 131 194 1;
#X obj 131 340 f;
#X obj 131 363 + 1;
#X obj 131 409 + 1;
#X obj 20 377 adc~ 1 2 3 4;
#X obj 20 504 *~;
#X obj 131 432 == 1;
#X obj 166 432 == 2;
#X obj 39 529 *~;
#X obj 59 552 *~;
#X obj 78 572 *~;
#X obj 201 432 == 3;
#X obj 236 432 == 4;
#X obj 166 462 == 5;
#X obj 201 462 == 6;
#X obj 236 462 == 7;
#X obj 271 462 == 8;
#X obj 98 511 *~;
#X obj 117 536 *~;
#X obj 137 559 *~;
#X obj 157 579 *~;
#X obj 131 317 metro 500;
#X msg 103 194 0;
#X obj 189 107 trill_square pr1;
#X obj 349 70 trill_bar pr2;
#X obj 189 163 -;
#X obj 189 193 *;
#X obj 189 232 sqrt;
#X floatatom 189 252 5 0 0 0 - - -;
#X obj 251 163 -;
#X obj 251 193 *;
#X obj 251 232 sqrt;
#X floatatom 251 252 5 0 0 0 - - -;
#X obj 251 271 * 1000;
#X floatatom 251 291 5 0 0 0 - - -;
#X floatatom 166 406 5 0 0 0 - - -;
#X obj 131 386 % 2;
#X msg 170 349 2;
#X msg 205 351 8;
#X obj 20 431 *~ 0.9;
#X obj 349 94 -;
#X obj 349 124 *;
#X obj 409 94 -;
#X obj 409 124 *;
#X obj 349 144 sqrt;
#X obj 409 144 sqrt;
#X obj 409 164 * 1000;
#X floatatom 349 184 5 0 0 0 - - -;
#X floatatom 409 184 5 0 0 0 - - -;
#X floatatom 189 295 5 0 0 0 - - -;
#X obj 349 164 * 10;
#X obj 351 360 scale_abs 7 800 1000 10;
#X obj 189 271 * 100;
#X connect 1 0 3 0;
#X connect 3 0 0 0;
#X connect 3 0 2 0;
#X connect 5 0 6 0;
#X connect 6 0 27 0;
#X connect 7 0 8 0;
#X connect 8 0 7 1;
#X connect 8 0 42 0;
#X connect 9 0 12 0;
#X connect 9 0 13 0;
#X connect 9 0 17 0;
#X connect 9 0 18 0;
#X connect 9 0 19 0;
#X connect 9 0 20 0;
#X connect 9 0 21 0;
#X connect 9 0 22 0;
#X connect 9 0 41 0;
#X connect 10 0 45 0;
#X connect 10 1 45 0;
#X connect 10 2 45 0;
#X connect 10 3 45 0;
#X connect 11 0 4 0;
#X connect 12 0 11 1;
#X connect 13 0 14 1;
#X connect 14 0 4 1;
#X connect 15 0 4 2;
#X connect 16 0 4 3;
#X connect 17 0 15 1;
#X connect 18 0 16 1;
#X connect 19 0 23 1;
#X connect 20 0 24 1;
#X connect 21 0 25 1;
#X connect 22 0 26 1;
#X connect 23 0 4 4;
#X connect 24 0 4 5;
#X connect 25 0 4 6;
#X connect 26 0 4 7;
#X connect 27 0 7 0;
#X connect 28 0 27 0;
#X connect 29 0 31 0;
#X connect 29 1 31 1;
#X connect 29 2 35 0;
#X connect 29 3 35 1;
#X connect 30 0 46 0;
#X connect 30 1 46 1;
#X connect 30 2 48 0;
#X connect 30 3 48 1;
#X connect 31 0 32 0;
#X connect 31 0 32 1;
#X connect 32 0 33 0;
#X connect 33 0 34 0;
#X connect 34 0 58 0;
#X connect 35 0 36 0;
#X connect 35 0 36 1;
#X connect 36 0 37 0;
#X connect 37 0 38 0;
#X connect 38 0 39 0;
#X connect 39 0 40 0;
#X connect 42 0 9 0;
#X connect 43 0 42 1;
#X connect 44 0 42 1;
#X connect 45 0 11 0;
#X connect 45 0 14 0;
#X connect 45 0 15 0;
#X connect 45 0 16 0;
#X connect 45 0 23 0;
#X connect 45 0 26 0;
#X connect 45 0 25 0;
#X connect 45 0 24 0;
#X connect 46 0 47 0;
#X connect 46 0 47 1;
#X connect 47 0 50 0;
#X connect 48 0 49 0;
#X connect 48 0 49 1;
#X connect 49 0 51 0;
#X connect 50 0 56 0;
#X connect 51 0 52 0;
#X connect 52 0 54 0;
#X connect 53 0 42 1;
#X connect 55 0 27 1;
#X connect 56 0 53 0;
#X connect 58 0 55 0;
