#N canvas 0 23 768 786 10;
#X obj 59 264 bng 15 250 50 0 empty empty empty 17 7 0 10 -262144 -1
-1;
#X obj 112 270 bng 15 250 50 0 empty empty empty 17 7 0 10 -262144
-1 -1;
#X obj 196 281 bng 15 250 50 0 empty empty empty 17 7 0 10 -262144
-1 -1;
#X obj 282 279 bng 15 250 50 0 empty empty empty 17 7 0 10 -262144
-1 -1;
#X msg 17 300 set 1;
#X msg 59 299 set 2;
#X msg 111 312 set 3;
#X msg 153 311 set 4;
#X msg 196 314 set 5;
#X msg 238 313 set 6;
#X msg 282 314 set 7;
#X msg 324 313 set 8;
#X obj 59 224 route 1 2 3 4;
#X obj 76 558 outlet;
#X obj 304 557 outlet;
#X obj 374 90 r \$1;
#X obj 374 112 t f f;
#X obj 402 215 route 5 6 7 8;
#X obj 402 244 bng 15 250 50 0 empty empty empty 17 7 0 10 -262144
-1 -1;
#X obj 420 244 bng 15 250 50 0 empty empty empty 17 7 0 10 -262144
-1 -1;
#X obj 439 244 bng 15 250 50 0 empty empty empty 17 7 0 10 -262144
-1 -1;
#X obj 458 244 bng 15 250 50 0 empty empty empty 17 7 0 10 -262144
-1 -1;
#X msg 558 412 set 5;
#X msg 686 411 set 8;
#X msg 379 398 set 1;
#X msg 418 398 set 3;
#X msg 473 410 set 2;
#X msg 515 409 set 4;
#X msg 600 411 set 7;
#X msg 644 412 set 6;
#X connect 0 0 4 0;
#X connect 0 0 5 0;
#X connect 1 0 6 0;
#X connect 1 0 7 0;
#X connect 2 0 8 0;
#X connect 2 0 9 0;
#X connect 3 0 10 0;
#X connect 3 0 11 0;
#X connect 4 0 13 0;
#X connect 5 0 14 0;
#X connect 6 0 13 0;
#X connect 7 0 14 0;
#X connect 8 0 13 0;
#X connect 9 0 14 0;
#X connect 10 0 13 0;
#X connect 11 0 14 0;
#X connect 12 0 0 0;
#X connect 12 1 1 0;
#X connect 12 2 2 0;
#X connect 12 3 3 0;
#X connect 15 0 16 0;
#X connect 16 0 12 0;
#X connect 16 1 17 0;
#X connect 17 0 18 0;
#X connect 17 1 19 0;
#X connect 17 2 20 0;
#X connect 17 3 21 0;
#X connect 18 0 24 0;
#X connect 18 0 25 0;
#X connect 19 0 26 0;
#X connect 19 0 27 0;
#X connect 20 0 22 0;
#X connect 20 0 28 0;
#X connect 21 0 29 0;
#X connect 21 0 23 0;
#X connect 22 0 13 0;
#X connect 23 0 14 0;
#X connect 24 0 13 0;
#X connect 25 0 14 0;
#X connect 26 0 13 0;
#X connect 27 0 14 0;
#X connect 28 0 14 0;
#X connect 29 0 13 0;
