#N canvas 53 333 617 548 10;
#X obj 80 29 inlet;
#X obj 80 231 -;
#X obj 80 357 /;
#X obj 80 418 *;
#X obj 80 478 +;
#X obj 80 498 outlet;
#X obj 120 216 t a a;
#X obj 147 302 pack f f;
#X msg 147 322 \$1 \$2;
#X obj 147 342 -;
#X obj 165 269 t b a;
#X obj 210 321 t a a;
#X obj 237 363 pack f f;
#X msg 237 383 \$1 \$2;
#X obj 237 403 -;
#X obj 255 330 t b a;
#X obj 325 159 loadbang;
#X obj 325 179 t b b b b;
#X obj 127 194 f \$1;
#X obj 262 308 f \$4;
#X obj 217 299 f \$3;
#X obj 172 247 f \$2;
#X obj 120 99 \$1;
#X obj 165 121 \$2;
#X obj 210 142 \$3;
#X obj 255 166 \$4;
#X obj 255 139 loadbang;
#X obj 210 119 loadbang;
#X obj 165 99 loadbang;
#X obj 120 79 loadbang;
#X connect 0 0 1 0;
#X connect 1 0 2 0;
#X connect 2 0 3 0;
#X connect 3 0 4 0;
#X connect 4 0 5 0;
#X connect 6 0 1 1;
#X connect 6 1 7 0;
#X connect 7 0 8 0;
#X connect 8 0 9 0;
#X connect 9 0 2 1;
#X connect 10 0 7 0;
#X connect 10 1 7 1;
#X connect 11 0 12 0;
#X connect 11 1 4 1;
#X connect 12 0 13 0;
#X connect 13 0 14 0;
#X connect 14 0 3 1;
#X connect 15 0 12 0;
#X connect 15 1 12 1;
#X connect 16 0 17 0;
#X connect 17 0 18 0;
#X connect 17 1 21 0;
#X connect 17 2 20 0;
#X connect 17 3 19 0;
#X connect 18 0 6 0;
#X connect 19 0 15 0;
#X connect 20 0 11 0;
#X connect 21 0 10 0;
#X connect 22 0 6 0;
#X connect 23 0 10 0;
#X connect 24 0 11 0;
#X connect 25 0 15 0;
#X connect 26 0 25 0;
#X connect 27 0 24 0;
#X connect 28 0 23 0;
#X connect 29 0 22 0;
