#N canvas 774 23 336 354 10;
#X msg 118 17 devices;
#X msg 72 17 close;
#X obj 24 83 sel 10 13;
#N canvas 494 452 450 300 zl 0;
#X obj 157 166 list;
#X obj 157 84 t b b;
#X obj 184 196 list;
#X obj 87 34 inlet;
#X obj 157 24 inlet;
#X obj 184 225 outlet;
#X obj 88 123 list prepend;
#X connect 0 0 2 1;
#X connect 0 0 6 1;
#X connect 1 0 0 0;
#X connect 1 0 2 1;
#X connect 1 0 0 1;
#X connect 1 0 6 0;
#X connect 1 0 6 1;
#X connect 1 1 2 0;
#X connect 2 0 5 0;
#X connect 3 0 6 0;
#X connect 4 0 1 0;
#X connect 6 0 0 0;
#X restore 24 116 pd zl;
#X obj 24 137 s dataRAW;
#X msg 24 18 open 1;
#X obj 24 205 parse_sprintf 65;
#X obj 23 274 parse_sprintf 84;
#X obj 23 332 s slider;
#X obj 24 226 s enc_file;
#X obj 188 9 loadbang;
#X msg 188 49 0;
#X obj 258 14 key;
#X floatatom 258 34 5 0 0 0 - - -;
#X obj 24 177 pot_prints;
#X obj 188 29 del 2000;
#X obj 91 177 buttons_print;
#X obj 24 62 comport 0 4800;
#X obj 23 294 pack f 100;
#X obj 23 314 line;
#X connect 0 0 17 0;
#X connect 1 0 17 0;
#X connect 2 0 3 1;
#X connect 2 2 3 0;
#X connect 3 0 4 0;
#X connect 5 0 17 0;
#X connect 6 0 9 0;
#X connect 7 0 18 0;
#X connect 10 0 15 0;
#X connect 11 0 17 0;
#X connect 12 0 13 0;
#X connect 15 0 11 0;
#X connect 17 0 2 0;
#X connect 18 0 19 0;
#X connect 19 0 8 0;
