#N canvas 0 23 724 697 10;
#X obj 387 96 switch~;
#X obj 386 41 r enc_file;
#X obj 419 63 tgl 15 0 empty empty empty 17 7 0 10 -262144 -1 -1 0
1;
#X obj 365 75 tgl 15 0 empty empty empty 17 7 0 10 -262144 -1 -1 0
1;
#X obj 387 62 == 3;
#X obj 44 242 +~ 1;
#X obj 44 262 *~ 0.5;
#X obj 44 181 *~ 0.5;
#X obj 224 222 +~ 1;
#X obj 224 242 *~ 0.5;
#X obj 224 120 osc~ 1;
#X obj 224 140 +~ 1;
#X obj 224 160 *~ 0.5;
#X obj 44 141 osc~ -1;
#X obj 44 119 tabosc4~ wave1;
#X obj 44 282 *~ 2;
#X obj 224 261 *~ 2;
#X obj 224 99 tabosc4~ wave2;
#X obj 44 222 tabosc4~ wave2;
#X obj 224 202 tabosc4~ wave1;
#X obj 224 182 *~ 512;
#X obj 44 202 *~ 512;
#X obj 223 79 sig~ 0.0001;
#X obj 44 24 sq_ -------------;
#X floatatom 44 44 5 0 0 0 - - -;
#X obj 44 161 +~ 1;
#X obj 197 25 br_ 1 ------------;
#X obj 44 99 sig~ 0.0001;
#X obj 43 313 table wave;
#N canvas 617 435 204 298 waves 0;
#X obj 41 145 t f f f;
#N canvas 363 496 598 324 parA 0;
#X obj 135 117 bng 15 250 50 0 empty empty empty 17 7 0 10 -262144
-1 -1;
#X obj 164 117 bng 15 250 50 0 empty empty empty 17 7 0 10 -262144
-1 -1;
#X obj 193 118 bng 15 250 50 0 empty empty empty 17 7 0 10 -262144
-1 -1;
#X msg 135 142 \; wave sinesum 260 1;
#X msg 193 215 \; wave sinesum 260 -1 0;
#X obj 135 94 sel 0 1 2;
#X obj 135 68 inlet;
#X msg 164 178 \; wave cosinesum 260 0 -0.9 0.3 0.6 0.2;
#X obj 85 43 loadbang;
#X connect 0 0 3 0;
#X connect 1 0 7 0;
#X connect 2 0 4 0;
#X connect 5 0 0 0;
#X connect 5 1 1 0;
#X connect 5 2 2 0;
#X connect 6 0 5 0;
#X connect 8 0 0 0;
#X restore 41 206 pd parA;
#X obj 42 81 r \$2;
#X obj 18 29 hradio 10 1 0 9 empty empty empty 0 -8 0 10 -262144 -1
-1 6;
#N canvas 656 426 450 300 parB 0;
#X obj 52 102 bng 15 250 50 0 empty empty empty 17 7 0 10 -262144 -1
-1;
#X obj 81 105 bng 15 250 50 0 empty empty empty 17 7 0 10 -262144 -1
-1;
#X obj 110 106 bng 15 250 50 0 empty empty empty 17 7 0 10 -262144
-1 -1;
#X msg 52 135 \; wave sinesum 260 0.5 0.33 0.25;
#X msg 81 175 \; wave sinesum 260 0.1 -0.3 0.41 0.4;
#X msg 110 211 \; wave sinesum 260 0.3 -0.07 0.2 -0.4 0.2 0.09 0.1
;
#X obj 52 54 inlet;
#X obj 52 79 sel 3 4 5;
#X connect 0 0 3 0;
#X connect 1 0 4 0;
#X connect 2 0 5 0;
#X connect 6 0 7 0;
#X connect 7 0 0 0;
#X connect 7 1 1 0;
#X connect 7 2 2 0;
#X restore 60 170 pd parB;
#N canvas 657 478 450 300 parC 0;
#X obj 52 102 bng 15 250 50 0 empty empty empty 17 7 0 10 -262144 -1
-1;
#X obj 81 105 bng 15 250 50 0 empty empty empty 17 7 0 10 -262144 -1
-1;
#X obj 110 106 bng 15 250 50 0 empty empty empty 17 7 0 10 -262144
-1 -1;
#X obj 52 54 inlet;
#X obj 52 79 sel 6 7 8;
#X msg 52 135 \; wave sinesum 260 0.1 -0.3 0.001 -0.2 -0.3 0.5;
#X msg 81 175 \; wave sinesum 260 0.9 -0.1 0.3 -0.001;
#X msg 110 211 \; wave sinesum 260 0.2 -0.3 -0.4;
#X connect 0 0 5 0;
#X connect 1 0 6 0;
#X connect 2 0 7 0;
#X connect 3 0 4 0;
#X connect 4 0 0 0;
#X connect 4 1 1 0;
#X connect 4 2 2 0;
#X restore 93 149 pd parC;
#N canvas 41 499 1363 360 buttons 0;
#X obj 250 94 r buttons;
#X obj 218 264 tabwrite~ wave;
#X obj 218 179 noise~;
#X obj 429 279 tabwrite~ wave;
#X obj 218 204 lop~ 1000;
#X obj 250 134 t b b;
#X obj 280 154 random 1000;
#X obj 280 174 + 100;
#X obj 385 63 r buttons;
#X obj 483 222 bng 15 250 50 0 empty empty empty 17 7 0 10 -262144
-1 -1;
#X obj 429 214 *~ 2;
#X obj 429 194 -~ 0.5;
#X obj 429 174 phasor~ 1000;
#X obj 124 263 tabwrite~ wave;
#X obj 62 27 r buttons;
#X obj 124 158 osc~ 1000;
#X obj 124 198 *~ 1;
#X obj 124 178 -~ 0;
#X obj 123 113 random 1000;
#X obj 123 133 + 100;
#X obj 62 67 t b b;
#X obj 31 44 bng 15 250 50 0 empty empty empty 17 7 0 10 -262144 -1
-1;
#X obj 429 130 random 1000;
#X obj 429 150 + 100;
#X obj 385 103 t b b;
#X obj 358 64 bng 15 250 50 0 empty empty empty 17 7 0 10 -262144 -1
-1;
#X obj 62 47 sel 1;
#X obj 250 114 sel 2;
#X obj 385 83 sel 3;
#X obj 639 279 tabwrite~ wave;
#X obj 595 63 r buttons;
#X obj 589 249 bng 15 250 50 0 empty empty empty 17 7 0 10 -262144
-1 -1;
#X obj 639 214 *~ 2;
#X obj 639 194 -~ 0.5;
#X obj 639 174 phasor~ 1000;
#X obj 639 130 random 1000;
#X obj 639 150 + 100;
#X obj 568 64 bng 15 250 50 0 empty empty empty 17 7 0 10 -262144 -1
-1;
#X obj 639 234 *~;
#X obj 595 83 sel 4;
#X obj 700 211 osc~ 100;
#X obj 595 103 t b b b;
#X obj 739 130 random 1000;
#X obj 739 150 + 100;
#X obj 906 271 tabwrite~ wave;
#X obj 862 55 r buttons;
#X obj 856 241 bng 15 250 50 0 empty empty empty 17 7 0 10 -262144
-1 -1;
#X obj 906 142 + 100;
#X obj 835 56 bng 15 250 50 0 empty empty empty 17 7 0 10 -262144 -1
-1;
#X obj 906 226 *~;
#X obj 862 95 t b b b;
#X obj 1006 142 + 100;
#X obj 862 75 sel 5;
#X obj 906 166 osc~ 1000;
#X obj 967 203 phasor~ 100;
#X obj 906 206 *~ 1;
#X obj 1006 122 random 3000;
#X obj 906 122 random 9500;
#X obj 1135 268 tabwrite~ wave;
#X obj 1091 52 r buttons;
#X obj 1085 238 bng 15 250 50 0 empty empty empty 17 7 0 10 -262144
-1 -1;
#X obj 1135 139 + 100;
#X obj 1064 53 bng 15 250 50 0 empty empty empty 17 7 0 10 -262144
-1 -1;
#X obj 1135 223 *~;
#X obj 1091 92 t b b b;
#X obj 1235 139 + 100;
#X obj 1091 72 sel 5;
#X obj 1196 200 phasor~ 100;
#X obj 1135 163 phasor~ 1000;
#X obj 1135 203 -~ 0.5;
#X obj 1135 119 random 91500;
#X obj 1235 119 random 9000;
#X obj 1135 243 *~ 2;
#X connect 0 0 27 0;
#X connect 2 0 4 0;
#X connect 4 0 1 0;
#X connect 5 0 1 0;
#X connect 5 1 6 0;
#X connect 6 0 7 0;
#X connect 7 0 4 1;
#X connect 8 0 28 0;
#X connect 9 0 3 0;
#X connect 10 0 3 0;
#X connect 11 0 10 0;
#X connect 12 0 11 0;
#X connect 14 0 26 0;
#X connect 15 0 17 0;
#X connect 16 0 13 0;
#X connect 17 0 16 0;
#X connect 18 0 19 0;
#X connect 19 0 15 0;
#X connect 20 0 13 0;
#X connect 20 1 18 0;
#X connect 21 0 20 0;
#X connect 22 0 23 0;
#X connect 23 0 12 0;
#X connect 24 0 3 0;
#X connect 24 1 22 0;
#X connect 25 0 24 0;
#X connect 26 0 20 0;
#X connect 27 0 5 0;
#X connect 28 0 24 0;
#X connect 30 0 39 0;
#X connect 31 0 29 0;
#X connect 32 0 38 0;
#X connect 33 0 32 0;
#X connect 34 0 33 0;
#X connect 35 0 36 0;
#X connect 36 0 34 0;
#X connect 37 0 41 0;
#X connect 38 0 29 0;
#X connect 39 0 41 0;
#X connect 40 0 38 1;
#X connect 41 0 29 0;
#X connect 41 1 35 0;
#X connect 41 2 42 0;
#X connect 42 0 43 0;
#X connect 43 0 40 0;
#X connect 45 0 52 0;
#X connect 46 0 44 0;
#X connect 47 0 53 0;
#X connect 48 0 50 0;
#X connect 49 0 44 0;
#X connect 50 0 44 0;
#X connect 50 1 57 0;
#X connect 50 2 56 0;
#X connect 51 0 54 0;
#X connect 52 0 50 0;
#X connect 53 0 55 0;
#X connect 54 0 49 1;
#X connect 55 0 49 0;
#X connect 56 0 51 0;
#X connect 57 0 47 0;
#X connect 59 0 66 0;
#X connect 60 0 58 0;
#X connect 61 0 68 0;
#X connect 62 0 64 0;
#X connect 63 0 72 0;
#X connect 64 0 58 0;
#X connect 64 1 70 0;
#X connect 64 2 71 0;
#X connect 65 0 67 0;
#X connect 66 0 64 0;
#X connect 67 0 63 1;
#X connect 68 0 69 0;
#X connect 69 0 63 0;
#X connect 70 0 61 0;
#X connect 71 0 65 0;
#X connect 72 0 58 0;
#X restore 41 225 pd buttons;
#X connect 0 0 1 0;
#X connect 0 1 4 0;
#X connect 0 2 5 0;
#X connect 2 0 0 0;
#X connect 3 0 0 0;
#X restore 111 313 pd waves;
#X obj 43 332 table wave1;
#X obj 43 350 table wave2;
#X obj 43 369 waves;
#X obj 43 388 banks 1 2 Pot_1 Pot_2 input1-out input2-out Pot_9 Pot_10
;
#X connect 1 0 4 0;
#X connect 3 0 0 0;
#X connect 4 0 0 0;
#X connect 4 0 2 0;
#X connect 5 0 6 0;
#X connect 6 0 15 0;
#X connect 7 0 21 0;
#X connect 8 0 9 0;
#X connect 9 0 16 0;
#X connect 10 0 11 0;
#X connect 11 0 12 0;
#X connect 12 0 20 0;
#X connect 13 0 25 0;
#X connect 14 0 13 0;
#X connect 17 0 10 0;
#X connect 18 0 5 0;
#X connect 19 0 8 0;
#X connect 20 0 19 0;
#X connect 21 0 18 0;
#X connect 22 0 17 0;
#X connect 23 0 24 0;
#X connect 23 1 22 0;
#X connect 24 0 27 0;
#X connect 25 0 7 0;
#X connect 26 0 27 0;
#X connect 26 1 22 0;
#X connect 27 0 14 0;
