#N canvas 1073 178 381 339 10;
#X obj 39 256 outlet;
#X floatatom 39 162 5 0 0 0 - - -;
#X floatatom 102 165 5 0 0 0 - - -;
#X floatatom 158 165 5 0 0 0 - - -;
#X floatatom 221 165 5 0 0 0 - - -;
#X obj 102 254 outlet;
#X obj 158 254 outlet;
#X obj 221 254 outlet;
#N canvas 1338 178 510 506 loc 0;
#X obj 48 117 parse_sprintf 47;
#X obj 76 317 outlet;
#X obj 22 14 parse_sprintf 115;
#X floatatom 76 233 5 0 0 0 - - -;
#X obj 22 33 change;
#X obj 22 55 t b f;
#X obj 22 76 f;
#X obj 22 97 + 1;
#X obj 22 139 sel 0;
#X obj 22 160 t b;
#X obj 22 118 % 4;
#X msg 49 77 append \$1;
#X obj 76 195 list store;
#X obj 76 216 unpack f f f f;
#X floatatom 103 337 5 0 0 0 - - -;
#X floatatom 130 373 5 0 0 0 - - -;
#X floatatom 157 413 5 0 0 0 - - -;
#X floatatom 68 34 5 0 0 0 - - -;
#X obj 103 356 outlet;
#X obj 130 392 outlet;
#X obj 157 432 outlet;
#X obj 22 181 del 1;
#X connect 0 0 10 1;
#X connect 2 0 4 0;
#X connect 2 0 17 0;
#X connect 3 0 1 0;
#X connect 4 0 5 0;
#X connect 5 0 6 0;
#X connect 5 1 11 0;
#X connect 6 0 7 0;
#X connect 7 0 6 1;
#X connect 7 0 10 0;
#X connect 8 0 9 0;
#X connect 9 0 12 0;
#X connect 9 0 21 0;
#X connect 10 0 8 0;
#X connect 11 0 12 0;
#X connect 12 0 13 0;
#X connect 13 0 3 0;
#X connect 13 1 14 0;
#X connect 13 2 15 0;
#X connect 13 3 16 0;
#X connect 14 0 18 0;
#X connect 15 0 19 0;
#X connect 16 0 20 0;
#X connect 21 0 12 1;
#X restore 39 16 pd loc;
#N canvas 816 437 450 501 size 1;
#X obj 190 222 list store;
#X msg 190 192 append \$1;
#X obj 63 34 t b f;
#X obj 63 55 f;
#X obj 63 76 + 1;
#X obj 63 148 sel 0;
#X obj 63 169 t b;
#X obj 63 186 del 2;
#X obj 190 243 unpack f f f f;
#X obj 63 127 % 4;
#X obj 63 11 parse_sprintf 126;
#X obj 78 104 parse_sprintf 47;
#X floatatom 190 292 5 0 0 0 - - -;
#X floatatom 231 335 5 0 0 0 - - -;
#X floatatom 273 373 5 0 0 0 - - -;
#X floatatom 320 414 5 0 0 0 - - -;
#X obj 190 311 outlet;
#X obj 231 354 outlet;
#X obj 273 392 outlet;
#X obj 320 433 outlet;
#X obj 190 263 / 10;
#X obj 231 315 / 10;
#X obj 273 352 / 10;
#X obj 320 392 / 10;
#X connect 0 0 8 0;
#X connect 1 0 0 0;
#X connect 2 0 3 0;
#X connect 2 1 1 0;
#X connect 3 0 4 0;
#X connect 4 0 3 1;
#X connect 4 0 9 0;
#X connect 5 0 6 0;
#X connect 6 0 0 0;
#X connect 6 0 7 0;
#X connect 7 0 0 1;
#X connect 8 0 20 0;
#X connect 8 1 21 0;
#X connect 8 2 22 0;
#X connect 8 3 23 0;
#X connect 9 0 5 0;
#X connect 10 0 2 0;
#X connect 11 0 9 1;
#X connect 12 0 16 0;
#X connect 13 0 17 0;
#X connect 14 0 18 0;
#X connect 15 0 19 0;
#X connect 20 0 12 0;
#X connect 21 0 13 0;
#X connect 22 0 14 0;
#X connect 23 0 15 0;
#X restore 177 16 pd size;
#X obj 39 127 / 100;
#X obj 102 128 / 100;
#X obj 158 127 / 100;
#X obj 221 128 / 100;
#X obj 39 69 pack f f;
#X obj 39 99 line;
#X obj 102 69 pack f f;
#X obj 102 99 line;
#X obj 158 69 pack f f;
#X obj 158 99 line;
#X obj 221 69 pack f f;
#X obj 221 99 line;
#X connect 1 0 0 0;
#X connect 2 0 5 0;
#X connect 3 0 6 0;
#X connect 4 0 7 0;
#X connect 8 0 14 0;
#X connect 8 1 16 0;
#X connect 8 2 18 0;
#X connect 8 3 20 0;
#X connect 9 0 14 1;
#X connect 9 1 16 1;
#X connect 9 2 18 1;
#X connect 9 3 20 1;
#X connect 10 0 1 0;
#X connect 11 0 2 0;
#X connect 12 0 3 0;
#X connect 13 0 4 0;
#X connect 14 0 15 0;
#X connect 15 0 10 0;
#X connect 16 0 17 0;
#X connect 17 0 11 0;
#X connect 18 0 19 0;
#X connect 19 0 12 0;
#X connect 20 0 21 0;
#X connect 21 0 13 0;
