#N canvas 922 115 759 769 12;
#X obj 16 124 outlet;
#X obj 57 148 outlet;
#X obj 98 179 outlet;
#X obj 139 205 outlet;
#X obj 22 538 t f b;
#X obj 80 527 t f b;
#X obj 105 484 t f b;
#X obj 139 457 t f b;
#X obj 22 621 tabwrite \$1-tab;
#X obj 510 11 table \$1-tab;
#X obj 510 58 symbol \$1-tab;
#X msg 510 83 \; \$1 resize 131;
#X obj 510 33 loadbang;
#X obj 16 78 br_ 1 ------------;
#X floatatom 16 101 5 0 0 0 - - -;
#X floatatom 57 101 5 0 0 0 - - -;
#X floatatom 98 102 5 0 0 0 - - -;
#X floatatom 139 103 5 0 0 0 - - -;
#X obj 16 261 * 125;
#X obj 19 284 hsl 128 15 0 127 0 0 empty empty empty -2 -8 0 10 -262144
-1 -1 0 1;
#X obj 57 311 * 125;
#X obj 60 334 hsl 128 15 0 127 0 0 empty empty empty -2 -8 0 10 -262144
-1 -1 0 1;
#X obj 98 361 * 125;
#X obj 101 384 hsl 128 15 0 127 0 0 empty empty empty -2 -8 0 10 -262144
-1 -1 0 1;
#X obj 139 411 * 125;
#X obj 142 434 hsl 128 15 0 127 0 0 empty empty empty -2 -8 0 10 -262144
-1 -1 0 1;
#X msg 78 561 10;
#X msg 107 550 30;
#X msg 132 507 70;
#X msg 166 480 100;
#X connect 4 0 8 0;
#X connect 4 1 26 0;
#X connect 5 0 8 0;
#X connect 5 1 27 0;
#X connect 6 0 8 0;
#X connect 6 1 28 0;
#X connect 7 0 8 0;
#X connect 7 1 29 0;
#X connect 10 0 11 0;
#X connect 12 0 10 0;
#X connect 13 0 14 0;
#X connect 13 0 4 0;
#X connect 13 1 15 0;
#X connect 13 1 5 0;
#X connect 13 2 16 0;
#X connect 13 3 17 0;
#X connect 14 0 0 0;
#X connect 14 0 18 0;
#X connect 15 0 1 0;
#X connect 15 0 20 0;
#X connect 16 0 2 0;
#X connect 16 0 22 0;
#X connect 16 0 6 0;
#X connect 17 0 3 0;
#X connect 17 0 24 0;
#X connect 17 0 7 0;
#X connect 18 0 19 0;
#X connect 20 0 21 0;
#X connect 22 0 23 0;
#X connect 24 0 25 0;
#X connect 26 0 8 1;
#X connect 27 0 8 1;
#X connect 28 0 8 1;
#X connect 29 0 8 1;
