#N canvas 780 178 292 542 10;
#X obj 25 227 outlet;
#X obj 78 227 outlet;
#X obj 138 228 outlet;
#X obj 198 219 outlet;
#X obj 73 384 t f b;
#X obj 131 352 t f b;
#X obj 138 309 t f b;
#X obj 198 261 t f b;
#X obj 73 467 tabwrite \$1-tab;
#X obj 111 36 table \$1-tab;
#X obj 42 86 symbol \$1-tab;
#X msg 42 111 \; \$1 resize 131;
#X obj 42 61 loadbang;
#X msg 129 407 10;
#X msg 163 396 40;
#X msg 208 353 70;
#X msg 230 286 100;
#X obj 25 152 sq_ -------------;
#X obj 112 59 bng 15 250 50 0 empty empty empty 17 7 0 10 -262144 -1
-1;
#X msg 141 87 \; \$1 const 0;
#X connect 4 0 8 0;
#X connect 4 1 13 0;
#X connect 5 0 8 0;
#X connect 5 1 14 0;
#X connect 6 0 8 0;
#X connect 6 1 15 0;
#X connect 7 0 8 0;
#X connect 7 1 16 0;
#X connect 10 0 11 0;
#X connect 10 0 19 0;
#X connect 12 0 10 0;
#X connect 13 0 8 1;
#X connect 14 0 8 1;
#X connect 15 0 8 1;
#X connect 16 0 8 1;
#X connect 17 0 0 0;
#X connect 17 0 4 0;
#X connect 17 1 1 0;
#X connect 17 1 5 0;
#X connect 17 2 2 0;
#X connect 17 2 6 0;
#X connect 17 3 3 0;
#X connect 17 3 7 0;
#X connect 18 0 10 0;
