#N canvas 1115 375 755 471 10;
#X obj 8 323 pack f f f f;
#X obj 8 9 parse_sprintf 47;
#X obj 8 108 change;
#X obj 8 168 t b;
#X obj 8 208 t f f f f;
#X obj 8 250 until;
#X obj 8 270 random 1000;
#X obj 81 250 until;
#X obj 81 270 random 1000;
#X obj 157 249 until;
#X obj 157 269 random 1000;
#X obj 230 249 until;
#X obj 230 269 random 1000;
#X obj 335 321 pack f f f f;
#X obj 335 146 change;
#X obj 335 166 t b;
#X obj 335 206 t f f f f;
#X obj 335 248 until;
#X obj 335 268 random 1000;
#X obj 408 248 until;
#X obj 408 268 random 1000;
#X obj 484 247 until;
#X obj 484 267 random 1000;
#X obj 557 247 until;
#X obj 557 267 random 1000;
#X obj 335 7 parse_sprintf 91;
#X obj 8 290 / 2000;
#X obj 81 290 / 2000;
#X obj 157 289 / 2000;
#X obj 230 289 / 2000;
#X obj 335 288 / 2000;
#X obj 408 288 / 2000;
#X obj 484 287 / 2000;
#X obj 557 287 / 2000;
#X obj 622 78 switch~;
#X obj 621 23 r enc_file;
#X obj 654 45 tgl 15 0 empty empty empty 17 7 0 10 -262144 -1 -1 1
1;
#X obj 600 57 tgl 15 0 empty empty empty 17 7 0 10 -262144 -1 -1 0
1;
#X obj 622 44 == 2;
#X obj 41 44 r enc_file;
#X obj 41 65 == 2;
#X obj 8 89 spigot;
#X obj 368 44 r enc_file;
#X obj 368 65 == 2;
#X obj 335 89 spigot;
#X msg 8 188 3;
#X msg 335 186 4;
#X obj 18 140 loadbang;
#X obj 278 147 loadbang;
#X msg 8 346 \; wave1 sinesum 512 \$1 \$2 \$3 \$4;
#X msg 335 344 \; wave2 cosinesum 512 \$1 \$2 \$3 \$4;
#X connect 0 0 49 0;
#X connect 1 0 41 0;
#X connect 2 0 3 0;
#X connect 3 0 45 0;
#X connect 4 0 5 0;
#X connect 4 1 7 0;
#X connect 4 2 9 0;
#X connect 4 3 11 0;
#X connect 5 0 6 0;
#X connect 6 0 26 0;
#X connect 7 0 8 0;
#X connect 8 0 27 0;
#X connect 9 0 10 0;
#X connect 10 0 28 0;
#X connect 11 0 12 0;
#X connect 12 0 29 0;
#X connect 13 0 50 0;
#X connect 14 0 15 0;
#X connect 15 0 46 0;
#X connect 16 0 17 0;
#X connect 16 1 19 0;
#X connect 16 2 21 0;
#X connect 16 3 23 0;
#X connect 17 0 18 0;
#X connect 18 0 30 0;
#X connect 19 0 20 0;
#X connect 20 0 31 0;
#X connect 21 0 22 0;
#X connect 22 0 32 0;
#X connect 23 0 24 0;
#X connect 24 0 33 0;
#X connect 25 0 44 0;
#X connect 26 0 0 0;
#X connect 27 0 0 1;
#X connect 28 0 0 2;
#X connect 29 0 0 3;
#X connect 30 0 13 0;
#X connect 31 0 13 1;
#X connect 32 0 13 2;
#X connect 33 0 13 3;
#X connect 35 0 38 0;
#X connect 37 0 34 0;
#X connect 38 0 34 0;
#X connect 38 0 36 0;
#X connect 39 0 40 0;
#X connect 40 0 41 1;
#X connect 41 0 2 0;
#X connect 42 0 43 0;
#X connect 43 0 44 1;
#X connect 44 0 14 0;
#X connect 45 0 4 0;
#X connect 46 0 16 0;
#X connect 47 0 3 0;
#X connect 48 0 15 0;
